{"title":"The.Secret.Life.of.Pets.2016.CAM.XviD-VAiN","uid":15357697,"size":745625604,"categoryP":"video","categoryS":"movies","magnet":"?xt=urn:btih:759ae4296fe23e2afd530d5ed42e822ce58dc435&amp;dn=The.Secret.Life.of.Pets.2016.CAM.XviD-VAiN&amp;tr=udp%3A%2F%2Ftracker.leechers-paradise.org%3A6969&amp;tr=udp%3A%2F%2Fzer0day.ch%3A1337&amp;tr=udp%3A%2F%2Fopen.demonii.com%3A1337&amp;tr=udp%3A%2F%2Ftracker.coppersurfer.tk%3A6969&amp;tr=udp%3A%2F%2Fexodus.desync.com%3A6969","seeders":70,"leechers":23,"uploader":"xxxlavalxxx","files":4,"time":1468995428,"description":"http://extraimago.com/image/avlf\r\n \nhttp://www.imdb.com/title/tt2709768/\r\n\r\n\r\nA terrier named Max's quiet life is upended when his owner takes in Duke, a stray, who Max instantly dislikes.\r\n\r\nDirectors: Yarrow Cheney, Chris Renaud\r\nWriters: Cinco Paul, Ken Daurio\r\nStars: Louis C.K., Eric Stonestreet, Kevin Hart\r\nGenres: Animation | Comedy | Family\r\nCountry: Japan | USA\r\nLanguage: English\r\n\r\n\r\nBasic Information\r\nFormat                      : AVI\r\nFormat/Info                 : Audio Video Interleave\r\nFile size                   : 704 MiB\r\nDuration                    : 1h 23mn\r\nOverall bit rate            : 1 183 Kbps\r\nWriting application         : VirtualDubMod 1.5.10.2 (build 2540/release)\r\nWriting library             : VirtualDubMod build 2540/release\r\n\r\nVideo\r\nID                          : 0\r\nFormat                      : MPEG-4 Visual\r\nFormat profile              : Advanced   \r\nFormat settings, BVOP       : 2\r\nFormat settings, QPel       : No\r\nFormat settings, GMC        : No warppoints\r\nFormat settings, Matrix     : Default (H.263)\r\nMuxing mode                 : Packed bitstream\r\nCodec ID                    : XVID\r\nCodec ID/Hint               : XviD\r\nDuration                    : 1h 23mn\r\nBit rate                    : 979 Kbps\r\nWidth                       : 720 pixels\r\nHeight                      : 356 pixels\r\nDisplay aspect ratio        : 2.022\r\nFrame rate                  : 29.970 (30000/1001) fps\r\nColor space                 : YUV\r\nChroma subsampling          : 4:2:0\r\nBit depth                   : 8 bits\r\nScan type                   : Progressive\r\nCompression mode            : Lossy\r\nBits/(Pixel*Frame)          : 0.127\r\nStream size                 : 583 MiB (83%)\r\nWriting library             : XviD 64\r\n\r\nAudio\r\nID                          : 1\r\nFormat                      : MPEG Audio\r\nFormat version              : Version 1\r\nFormat profile              : Layer 3\r\nCodec ID                    : 55\r\nCodec ID/Hint               : MP3\r\nDuration                    : 1h 23mn\r\nBit rate mode               : Constant\r\nBit rate                    : 192 Kbps\r\nChannel(s)                  : 2 channels\r\nSampling rate               : 48.0 KHz\r\nCompression mode            : Lossy\r\nStream size                 : 114 MiB (16%)\r\nAlignment                   : Aligned on interleaves\r\nInterleave, duration        : 33 ms (1.00 video frame)\r\nInterleave, preload duratio : 504 ms\r\n\r\nE N C O D E R S . N O T E S . . .  \r\n\r\nSOURCE......: ViDEO...BusyBoyz [cheers and many thanks for letting me borrow]\r\n............: AUDiO...BusyBoyz\r\nSAMPLE......: Yippers \r\nADDED NOTE..: rotated, chopped, cropped and re=sized... then added the ol poo-shine and here we are :) took audio, ran a few filters brought nice lvls and warm tones... \r\nenjoy or pass... \r\n\r\n \nhttp://extraimago.com/image/avIh \nhttp://extraimago.com/image/avIb \nhttp://extraimago.com/image/avI3 \nhttp://extraimago.com/image/avI9 \nhttp://extraimago.com/image/avIM \nhttp://extraimago.com/image/avIU","torrent":{"xt":"urn:btih:759ae4296fe23e2afd530d5ed42e822ce58dc435","amp;dn":"The.Secret.Life.of.Pets.2016.CAM.XviD-VAiN","amp;tr":["udp%3A%2F%2Ftracker.leechers-paradise.org%3A6969","udp%3A%2F%2Fzer0day.ch%3A1337","udp%3A%2F%2Fopen.demonii.com%3A1337","udp%3A%2F%2Ftracker.coppersurfer.tk%3A6969","udp%3A%2F%2Fexodus.desync.com%3A6969"],"infoHash":"759ae4296fe23e2afd530d5ed42e822ce58dc435","infoHashBuffer":{"type":"Buffer","data":[117,154,228,41,111,226,62,42,253,83,13,94,212,46,130,44,229,141,196,53]},"announce":[],"urlList":[]}}